<svg version="1.1" id="Layer_1" xmlns="http://www.w3.org/2000/svg" xmlns:xlink="http://www.w3.org/1999/xlink" x="0px" y="0px" viewBox="0 0 24.3 61.2" style="enable-background:new 0 0 24.3 61.2;" xml:space="preserve">
 <style type="text/css">
  .st0{fill:#01A1DD;}
 </style>
 <g>
  <path class="st0" d="M10.2,2.8c0,0,0.8,0.1,0.8,0.1c0,0,0.2,0.5,0.2,0.5C12.9,3.5,14.8,3,14.9,3C15,2.8,15.5,2.2,15,1.8
		c-2,0.4-5-0.3-4.6-0.1C10,1.6,9.5,1.3,9.1,0.8c-0.9-1.5-1.4-0.5-1.4,0C7.7,2.7,8.2,2.5,10.2,2.8">
  </path>
  <path class="st0" d="M24,28c-0.1-0.8-0.2-1.5-0.4-2.2c-1-3.3-2.2-6.8-5.5-8.3c-1.4-0.5-4.1-0.4-4.4-3.7c0-0.9,0-10,0-10L9.5,4.7
		c0,0,0,0.6,0,0.6c0,0-0.1,1.9-0.1,1.9c0,0,0,0.9,0,2c0.1,5.1,0.4,8.3-5.2,10.4c-3.4,1.3-3.7,2.8-4,6.8c0,0.3-0.1,0.6-0.1,0.8
		c0-0.1-1.1,11,2.6,28.8c0,0,0.6,2.9,0.6,3.3c0,0.2,0.3,0.5,0.8,0.9c6.4,1.5,7.7,0.4,11.1,0.9c3.4,0.5,6.4-1.7,6.5-1.8
		c0.3-0.1,1.4-2.4,1.6-5.2C24.7,46.3,24.4,33.9,24,28">
  </path>
 </g>
</svg>